<?xml version="1.0" encoding="UTF-8"?>
<!DOCTYPE svg PUBLIC "-//W3C//DTD SVG 1.1//EN" "http://www.w3.org/Graphics/SVG/1.1/DTD/svg11.dtd">
<!-- Creator: CorelDRAW X7 -->
<svg xmlns="http://www.w3.org/2000/svg" xml:space="preserve" width="0.19685in" height="0.19685in" version="1.1" style="shape-rendering:geometricPrecision; text-rendering:geometricPrecision; image-rendering:optimizeQuality; fill-rule:evenodd; clip-rule:evenodd"
viewBox="0 0 197 197"
 xmlns:xlink="http://www.w3.org/1999/xlink">
 <defs>
  <style type="text/css">
   <![CDATA[
    .fil0 {fill:#FEFEFE}
   ]]>
  </style>
 </defs>
 <g id="Layer_x0020_1">
  <metadata id="CorelCorpID_0Corel-Layer"/>
  <path class="fil0" d="M98 0c55,0 99,44 99,98 0,55 -44,99 -99,99 -54,0 -98,-44 -98,-99 0,-54 44,-98 98,-98zm0 34c15,0 26,11 26,25 0,15 -11,26 -26,26 -14,0 -25,-11 -25,-26 0,-14 11,-25 25,-25zm0 58c33,0 59,16 59,36 0,19 -26,35 -59,35 -32,0 -58,-16 -58,-35 0,-20 26,-36 58,-36z"/>
 </g>
</svg>
