<?xml version="1.0" encoding="UTF-8"?>
<!DOCTYPE svg PUBLIC "-//W3C//DTD SVG 1.1//EN" "http://www.w3.org/Graphics/SVG/1.1/DTD/svg11.dtd">
<!-- Creator: CorelDRAW X7 -->
<svg xmlns="http://www.w3.org/2000/svg" xml:space="preserve" width="0.199764in" height="0.505157in" version="1.1" style="shape-rendering:geometricPrecision; text-rendering:geometricPrecision; image-rendering:optimizeQuality; fill-rule:evenodd; clip-rule:evenodd"
viewBox="0 0 200 505"
 xmlns:xlink="http://www.w3.org/1999/xlink">
 <defs>
  <style type="text/css">
   <![CDATA[
    .fil0 {fill:#FEFEFE}
   ]]>
  </style>
 </defs>
 <g id="Layer_x0020_1">
  <metadata id="CorelCorpID_0Corel-Layer"/>
  <g id="_903088240">
   <path class="fil0" d="M0 200c0,41 3,22 8,35 -8,13 -8,0 -8,34 0,6 0,10 2,15 4,9 0,-1 6,8 -5,12 -9,-2 -8,36l1 13c10,3 188,3 198,0 0,-10 2,-30 -1,-39 -4,-11 -1,2 -6,-10 0,-1 1,-2 1,-1 0,0 7,-4 7,-22 0,-9 1,-21 -4,-28 0,0 -1,-2 -2,-3l-2 -2c5,-14 8,3 8,-36 0,-14 1,-15 -11,-15l-178 0c-12,0 -11,1 -11,15zm96 7c-11,11 -31,37 -37,56 -10,27 12,51 37,51 27,0 48,-24 39,-51 -7,-18 -28,-47 -39,-56z"/>
   <path class="fil0" d="M16 505l168 0c5,-5 6,-4 8,-13l0 -128 -184 0 0 112c0,19 -3,18 8,29z"/>
   <path class="fil0" d="M10 163l180 0c1,-15 -22,-52 -30,-67 -20,-38 -10,-41 -59,-41 -51,0 -40,1 -60,40 -8,14 -32,53 -31,68z"/>
   <path class="fil0" d="M133 0l-66 0c-7,5 -8,4 -9,16 -1,8 0,18 2,25 14,6 60,7 77,2 1,-1 14,-29 -4,-43z"/>
  </g>
 </g>
</svg>
