<?xml version="1.0" encoding="UTF-8"?>
<!DOCTYPE svg PUBLIC "-//W3C//DTD SVG 1.1//EN" "http://www.w3.org/Graphics/SVG/1.1/DTD/svg11.dtd">
<!-- Creator: CorelDRAW X7 -->
<svg xmlns="http://www.w3.org/2000/svg" xml:space="preserve" width="0.376417in" height="0.352866in" version="1.1" style="shape-rendering:geometricPrecision; text-rendering:geometricPrecision; image-rendering:optimizeQuality; fill-rule:evenodd; clip-rule:evenodd"
viewBox="0 0 376 353"
 xmlns:xlink="http://www.w3.org/1999/xlink">
 <defs>
  <style type="text/css">
   <![CDATA[
    .fil0 {fill:#FEFEFE}
   ]]>
  </style>
 </defs>
 <g id="Layer_x0020_1">
  <metadata id="CorelCorpID_0Corel-Layer"/>
  <g id="_776883168">
   <path class="fil0" d="M30 53c-7,1 -10,5 -10,19l0 155c0,8 5,17 13,17l122 0c8,0 10,-8 10,-15l0 -167c0,-6 -4,-9 -10,-9l-125 0z"/>
   <path class="fil0" d="M172 334l-19 0c-25,0 -47,-21 -47,-46l0 -39 -17 0c0,33 -4,57 19,81 34,35 104,29 123,-23 10,-24 5,-172 5,-210 0,-26 -3,-76 39,-76 40,0 35,66 35,85l17 0c0,-30 1,-73 -27,-93 -34,-24 -69,-1 -79,44 -4,21 -2,179 -2,214 0,21 0,31 -9,44 -8,10 -21,19 -38,19z"/>
   <path class="fil0" d="M295 200l49 0 0 41 -49 0 0 -41zm-15 -76l0 68c0,12 8,-5 7,30 0,32 -3,27 54,27 12,0 8,-25 8,-49l7 0 0 -84c-41,0 -5,-7 -44,-7 -6,0 -6,4 -15,6 -9,2 -17,-1 -17,9z"/>
   <path class="fil0" d="M322 229l17 0c-1,-7 0,-10 -7,-10l-3 0c-7,0 -7,3 -7,10z"/>
   <path class="fil0" d="M297 227c7,3 9,2 20,2 -1,-16 -15,-10 -20,-2z"/>
   <g>
    <path class="fil0" d="M121 1l0 0c5,0 9,4 9,9l0 53 -17 0 0 -53c0,-5 4,-9 8,-9z"/>
    <path class="fil0" d="M64 1l0 0c5,0 9,4 9,9l0 53 -18 0 0 -53c0,-5 4,-9 9,-9z"/>
   </g>
  </g>
 </g>
</svg>
