<?xml version="1.0" encoding="UTF-8"?>
<!DOCTYPE svg PUBLIC "-//W3C//DTD SVG 1.1//EN" "http://www.w3.org/Graphics/SVG/1.1/DTD/svg11.dtd">
<!-- Creator: CorelDRAW X7 -->
<svg xmlns="http://www.w3.org/2000/svg" xml:space="preserve" width="0.419764in" height="0.309764in" version="1.1" style="shape-rendering:geometricPrecision; text-rendering:geometricPrecision; image-rendering:optimizeQuality; fill-rule:evenodd; clip-rule:evenodd"
viewBox="0 0 420 310"
 xmlns:xlink="http://www.w3.org/1999/xlink">
 <defs>
  <style type="text/css">
   <![CDATA[
    .fil0 {fill:#FEFEFE}
   ]]>
  </style>
 </defs>
 <g id="Layer_x0020_1">
  <metadata id="CorelCorpID_0Corel-Layer"/>
  <g id="_885926800">
   <path class="fil0" d="M11 69c0,10 8,10 18,13 58,18 118,34 176,51 7,3 14,-1 24,-5l139 -55c19,-6 30,-12 51,-1 -2,-8 -11,-13 -19,-15l-79 -26c-10,-3 -84,-28 -91,-29 -34,-6 -48,2 -79,12 -5,2 -7,3 -12,4l-60 21c-8,3 -16,6 -24,9l-36 12c-4,2 -8,5 -8,9z"/>
   <path class="fil0" d="M210 310c4,0 22,-9 26,-11 5,-2 9,-4 13,-6l31 -14c17,-8 41,-21 57,-27 9,-3 17,-8 26,-12 4,-1 7,-3 12,-5l25 -12c13,-5 10,-14 6,-17l-24 -10c-3,-1 -5,-2 -8,-3l-25 -10 -102 43c-5,3 -11,5 -16,8 -21,8 -23,7 -47,-2 -28,-11 -62,-22 -92,-34 -4,-2 -8,-2 -12,-4 -4,-2 -7,-3 -11,-4 -9,-3 -39,-16 -48,-16 -7,0 -13,1 -17,8 -10,15 0,42 21,50l168 72c4,1 12,6 17,6z"/>
   <path class="fil0" d="M2 160c17,-9 32,-2 48,4 5,2 9,3 14,5 4,2 8,3 13,5 9,4 18,6 27,10l79 29c36,13 19,13 65,-6l127 -54c13,-5 26,-9 35,-20 3,-4 5,-6 7,-11 4,-12 5,-22 -4,-31 -10,-10 -21,-8 -33,-4l-156 61c-18,8 -26,1 -52,-6l-78 -22 -49 17c-5,1 -7,3 -12,4 -11,4 -29,8 -31,19z"/>
  </g>
 </g>
</svg>
