<?xml version="1.0" encoding="UTF-8"?>
<!DOCTYPE svg PUBLIC "-//W3C//DTD SVG 1.1//EN" "http://www.w3.org/Graphics/SVG/1.1/DTD/svg11.dtd">
<!-- Creator: CorelDRAW X7 -->
<svg xmlns="http://www.w3.org/2000/svg" xml:space="preserve" width="0.376417in" height="0.352866in" version="1.1" style="shape-rendering:geometricPrecision; text-rendering:geometricPrecision; image-rendering:optimizeQuality; fill-rule:evenodd; clip-rule:evenodd"
viewBox="0 0 376 353"
 xmlns:xlink="http://www.w3.org/1999/xlink">
 <defs>
  <style type="text/css">
   <![CDATA[
    .fil0 {fill:#FEFEFE}
   ]]>
  </style>
 </defs>
 <g id="Layer_x0020_1">
  <metadata id="CorelCorpID_0Corel-Layer"/>
  <g id="_785295504">
   <path class="fil0" d="M61 151l0 162c0,5 1,6 5,6l244 0c11,0 8,-24 8,-35l0 -127c-8,2 -21,24 -22,31 -3,21 -18,25 -29,20 -2,6 -28,43 -33,51 1,6 7,10 3,21 -9,25 -40,9 -38,-5l2 -14c-10,-7 -28,-24 -35,-33 -10,5 -11,4 -22,1 -1,7 -23,35 -27,41 2,6 8,10 3,21 -7,21 -38,16 -38,-7 0,-23 25,-18 30,-18l27 -40c-2,-8 -4,-5 -4,-15 0,-23 39,-24 39,0 0,7 -2,7 -2,13l34 33c4,-1 7,-3 10,-3 5,-1 6,1 12,1 2,-6 12,-19 16,-25l17 -24c-1,-5 -5,-10 -5,-15 0,-13 10,7 -11,-24 -3,-5 -5,-7 -8,-12 -3,-4 -5,-9 -11,-9l-160 0c-4,0 -5,1 -5,5z"/>
   <path class="fil0" d="M28 264l0 -64c0,-5 1,-3 3,-5 4,2 4,0 4,5l0 64c0,5 -1,4 -4,6 -3,-3 -3,-1 -3,-6zm306 -31c0,-5 1,-5 2,-9 10,-2 4,-3 16,0 6,25 -18,19 -18,9zm-323 -84l0 168c0,13 18,31 31,31l292 0c7,0 17,-6 21,-10 5,-6 10,-12 10,-23l0 -166c0,-19 -13,-26 -25,-33 -22,33 -15,27 -15,42l0 148c0,11 -4,20 -15,20l-242 0c-7,0 -15,-5 -15,-11l0 -164c0,-16 18,-13 33,-13l140 0c-3,-7 -8,-13 -10,-22l-177 1c-13,2 -28,16 -28,32z"/>
   <path class="fil0" d="M276 104c-39,0 -38,-60 0,-60 15,0 29,13 30,29 1,16 -13,31 -30,31zm0 89c9,-6 14,-15 21,-25 7,-10 12,-18 19,-28 24,-36 45,-78 10,-112 -33,-34 -80,-29 -106,5 -34,46 11,100 36,137 6,8 13,19 20,23z"/>
   <path class="fil0" d="M206 273c0,17 24,19 24,-2 0,-4 -10,-16 -20,-7 -3,3 -4,4 -4,9z"/>
   <path class="fil0" d="M90 284c0,5 6,13 11,13 12,0 18,-11 10,-20 -9,-10 -21,-3 -21,7z"/>
   <path class="fil0" d="M143 211c0,16 23,21 23,-2 0,-12 -23,-12 -23,2z"/>
   <path class="fil0" d="M272 200c-3,-4 0,-2 -5,-3 2,4 0,2 5,3z"/>
   <polygon class="fil0" points="267,197 267,195 264,196 "/>
   <polygon class="fil0" points="283,198 285,198 283,196 "/>
   <polygon class="fil0" points="283,198 281,198 283,201 "/>
   <path class="fil0" d="M272 200c0,1 1,1 1,1l-1 -1z"/>
  </g>
 </g>
</svg>
