<?xml version="1.0" encoding="UTF-8"?>
<!DOCTYPE svg PUBLIC "-//W3C//DTD SVG 1.1//EN" "http://www.w3.org/Graphics/SVG/1.1/DTD/svg11.dtd">
<!-- Creator: CorelDRAW X7 -->
<svg xmlns="http://www.w3.org/2000/svg" xml:space="preserve" width="1.93705in" height="1.04965in" version="1.1" style="shape-rendering:geometricPrecision; text-rendering:geometricPrecision; image-rendering:optimizeQuality; fill-rule:evenodd; clip-rule:evenodd"
viewBox="0 0 1937 1050"
 xmlns:xlink="http://www.w3.org/1999/xlink">
 <defs>
  <style type="text/css">
   <![CDATA[
    .str0 {stroke:#3E4095;stroke-width:27.7795;stroke-linecap:round;stroke-linejoin:round;stroke-dasharray:61.232283 61.232283}
    .fil3 {fill:none;fill-rule:nonzero}
    .fil7 {fill:#ED2F59;fill-rule:nonzero}
    .fil0 {fill:#00A9CF;fill-rule:nonzero}
    .fil6 {fill:#1C3380;fill-rule:nonzero}
    .fil4 {fill:white;fill-rule:nonzero}
    .fil1 {fill:url(#id0);fill-rule:nonzero;fill-opacity:0.509804}
    .fil2 {fill:url(#id1);fill-rule:nonzero;fill-opacity:0.701961}
    .fil5 {fill:url(#id2);fill-rule:nonzero;fill-opacity:0.701961}
   ]]>
  </style>
  <linearGradient id="id0" gradientUnits="userSpaceOnUse" x1="-0" y1="524.823" x2="1937.05" y2="524.823">
   <stop offset="0" style="stop-opacity:1; stop-color:black"/>
   <stop offset="0.419608" style="stop-opacity:1; stop-color:#7F7F7F"/>
   <stop offset="1" style="stop-opacity:1; stop-color:white"/>
  </linearGradient>
  <linearGradient id="id1" gradientUnits="userSpaceOnUse" xlink:href="#id0" x1="-0" y1="524.823" x2="1937.05" y2="524.823">
  </linearGradient>
  <linearGradient id="id2" gradientUnits="userSpaceOnUse" x1="1233.93" y1="189.575" x2="1419.8" y2="189.575">
   <stop offset="0" style="stop-opacity:1; stop-color:white"/>
   <stop offset="0.568627" style="stop-opacity:1; stop-color:gray"/>
   <stop offset="1" style="stop-opacity:1; stop-color:black"/>
  </linearGradient>
 </defs>
 <g id="Layer_x0020_1">
  <metadata id="CorelCorpID_0Corel-Layer"/>
  <g id="_1228716576">
   <g>
    <path class="fil0" d="M1856 803c0,0 127,-97 63,-152 -93,-80 -305,41 -609,119 -205,52 -734,246 -1006,-17 -123,-119 -127,-360 -24,-497 278,-369 866,-113 866,-113 0,0 -197,-113 -364,-135 -231,-30 -388,30 -502,91 -348,186 -348,582 -131,789 302,290 783,132 1198,-27 252,-96 472,-242 547,-170 33,32 -38,112 -38,112z"/>
   </g>
   <g>
    <path class="fil1" d="M1856 803c0,0 127,-97 63,-152 -93,-80 -305,41 -609,119 -205,52 -734,246 -1006,-17 -123,-119 -127,-360 -24,-497 278,-369 866,-113 866,-113 0,0 -197,-113 -364,-135 -231,-30 -388,30 -502,91 -348,186 -348,582 -131,789 302,290 783,132 1198,-27 252,-96 472,-242 547,-170 33,32 -38,112 -38,112z"/>
   </g>
   <g>
    <path class="fil2" d="M1856 803c0,0 127,-97 63,-152 -93,-80 -433,115 -746,220 -201,67 -797,213 -1013,-96 -160,-228 -88,-477 45,-585 458,-372 941,-47 941,-47 0,0 -197,-113 -364,-135 -231,-30 -388,30 -502,91 -348,186 -348,582 -131,789 302,290 783,132 1198,-27 252,-96 472,-242 547,-170 33,32 -38,112 -38,112z"/>
   </g>
   <g>
    <g>
     <g>
      <g>
       <g>
        <g>
         <polygon class="fil0" points="1250,108 1198,143 1234,177 1170,161 1118,196 1118,196 1421,272 1421,272 "/>
        </g>
       </g>
      </g>
     </g>
    </g>
   </g>
   <path class="fil3 str0" d="M1832 824c-365,280 -599,-284 -1094,63"/>
   <g>
    <path class="fil4" d="M654 60c0,0 -305,53 -416,227 -104,163 -33,382 -33,382 0,0 -110,-131 -40,-324 105,-288 489,-285 489,-285z"/>
   </g>
   <g>
    <polygon class="fil5" points="1234,119 1250,108 1420,271 "/>
   </g>
   <path class="fil6" d="M545 417l141 0 0 138 -151 0c-19,0 -37,-3 -53,-9 -16,-6 -30,-13 -42,-23 -11,-10 -21,-22 -27,-36 -7,-14 -10,-28 -10,-44 0,-16 3,-31 10,-44 6,-14 16,-25 27,-34 12,-10 26,-17 42,-23 16,-5 34,-7 53,-7l158 0 -44 57 -114 0c-9,0 -18,1 -25,4 -8,3 -15,6 -21,11 -6,5 -10,11 -14,17 -3,6 -5,14 -5,22 0,7 2,15 5,21 3,7 8,12 14,17 5,4 12,8 20,10 8,3 17,4 26,4l83 0 0 -32 -113 0 40 -49z"/>
   <path id="1" class="fil6" d="M1003 555l-103 0 -67 -58c-11,-10 -20,-18 -26,-23 -6,-6 -11,-10 -14,-14 0,5 0,10 0,16 0,5 0,10 0,16l0 63 -68 0 0 -220 68 0 0 51c0,6 0,13 0,20 0,6 0,12 -1,18 5,-4 10,-9 16,-14 6,-6 15,-13 25,-22l63 -53 99 0 -85 63c-7,5 -13,10 -19,14 -5,4 -10,8 -15,11 -4,3 -8,6 -12,8 -3,3 -7,5 -10,7 6,5 14,10 23,17 9,6 20,15 34,27l92 73z"/>
   <path id="2" class="fil6" d="M1177 417c5,8 9,16 12,22 4,7 7,12 10,17 3,5 5,10 7,14 2,4 4,8 6,12 2,-4 4,-8 6,-12 2,-4 4,-8 7,-13 3,-6 6,-11 10,-18 3,-6 8,-14 12,-22l36 -63c3,-7 8,-12 14,-16 7,-5 14,-7 23,-7 9,0 16,3 23,8 7,4 12,12 15,22l56 194 -68 0 -21 -77c-3,-12 -6,-23 -9,-33 -2,-9 -4,-18 -6,-27 -4,7 -8,16 -12,25 -5,9 -11,21 -18,35l-30 56c-3,5 -6,9 -9,13 -3,3 -6,5 -9,7 -3,2 -6,3 -10,3 -3,1 -7,1 -11,1 -4,0 -8,0 -12,-1 -3,0 -6,-1 -9,-3 -4,-2 -7,-4 -10,-7 -2,-4 -5,-8 -8,-13l-30 -56c-4,-7 -7,-14 -10,-20 -3,-6 -6,-11 -9,-16 -2,-5 -4,-9 -6,-13 -2,-4 -4,-8 -6,-11 -1,8 -4,17 -6,27 -2,10 -5,21 -8,33l-21 77 -67 0 57 -194c3,-10 8,-18 15,-22 7,-5 15,-8 23,-8 9,0 17,2 23,6 6,5 11,10 15,17l35 63z"/>
   <polygon class="fil7" points="463,630 445,630 445,678 434,678 434,630 416,630 416,620 463,620 "/>
   <path id="1" class="fil7" d="M598 657l-9 0 0 21 -12 0 0 -58 21 0c7,0 13,2 16,5 4,3 6,7 6,13 0,4 -1,7 -3,9 -1,3 -4,5 -8,7l13 23 0 1 -13 0 -11 -21zm-9 -10l9 0c3,0 6,-1 7,-2 2,-2 3,-4 3,-6 0,-3 -1,-5 -2,-7 -2,-1 -4,-2 -8,-2l-9 0 0 17z"/>
   <path id="2" class="fil7" d="M768 666l-20 0 -4 12 -13 0 21 -58 11 0 22 58 -13 0 -4 -12zm-17 -10l14 0 -7 -21 -7 21z"/>
   <polygon id="3" class="fil7" points="916,664 929,620 942,620 922,678 910,678 889,620 903,620 "/>
   <polygon id="4" class="fil7" points="1089,653 1066,653 1066,668 1093,668 1093,678 1055,678 1055,620 1093,620 1093,630 1066,630 1066,644 1089,644 "/>
   <polygon id="5" class="fil7" points="1219,668 1245,668 1245,678 1207,678 1207,620 1219,620 "/>
   <path id="6" class="fil7" d="M1388 663c0,-2 -1,-4 -2,-5 -2,-2 -5,-3 -9,-4 -4,-2 -7,-3 -10,-4 -6,-4 -9,-9 -9,-15 0,-3 0,-5 2,-8 2,-2 4,-4 8,-6 3,-1 7,-2 11,-2 4,0 8,1 11,3 3,1 6,3 8,6 1,3 2,6 2,9l-12 0c0,-2 -1,-5 -2,-6 -2,-1 -4,-2 -7,-2 -3,0 -5,0 -7,2 -2,1 -2,3 -2,5 0,1 0,3 2,4 2,2 5,3 9,4 7,2 11,4 15,7 3,3 4,7 4,12 0,5 -2,9 -5,12 -4,2 -9,4 -16,4 -4,0 -8,-1 -12,-3 -4,-1 -6,-3 -8,-6 -2,-3 -3,-6 -3,-10l12 0c0,6 4,9 11,9 3,0 5,0 7,-1 1,-1 2,-3 2,-5z"/>
  </g>
 </g>
</svg>
