<?xml version="1.0" encoding="UTF-8"?>
<!DOCTYPE svg PUBLIC "-//W3C//DTD SVG 1.1//EN" "http://www.w3.org/Graphics/SVG/1.1/DTD/svg11.dtd">
<!-- Creator: CorelDRAW X7 -->
<svg xmlns="http://www.w3.org/2000/svg" xml:space="preserve" width="0.376417in" height="0.352866in" version="1.1" style="shape-rendering:geometricPrecision; text-rendering:geometricPrecision; image-rendering:optimizeQuality; fill-rule:evenodd; clip-rule:evenodd"
viewBox="0 0 376 353"
 xmlns:xlink="http://www.w3.org/1999/xlink">
 <defs>
  <style type="text/css">
   <![CDATA[
    .fil0 {fill:#FEFEFE}
   ]]>
  </style>
 </defs>
 <g id="Layer_x0020_1">
  <metadata id="CorelCorpID_0Corel-Layer"/>
  <g id="_890383184">
   <polygon class="fil0" points="0,353 376,353 376,210 0,210 "/>
   <path class="fil0" d="M1 200l374 0c0,-4 -5,-21 -6,-27l-19 -83 -81 0 -11 50c6,0 21,-1 21,5 0,2 -2,5 -4,5l-173 0c-6,0 -6,-7 -1,-9 2,-1 13,-1 17,-1 -2,-8 -3,-16 -5,-24l-6 -26 -81 0 -19 82c-1,6 -6,24 -6,28z"/>
   <path class="fil0" d="M129 25c-5,0 -11,-2 -15,-3 -3,-1 -4,-1 -7,-2 -2,-1 -4,-3 -6,-3 0,3 1,5 1,7l24 110c1,3 1,6 3,6l118 0c3,0 3,-7 5,-13 1,-6 2,-11 3,-16l14 -63c1,-5 7,-27 7,-31l-13 5c-2,1 -4,2 -7,2 -37,6 -39,-24 -68,-24 -10,0 -18,4 -25,10 -9,8 -21,15 -34,15z"/>
  </g>
 </g>
</svg>
