<?xml version="1.0" encoding="UTF-8"?>
<!DOCTYPE svg PUBLIC "-//W3C//DTD SVG 1.1//EN" "http://www.w3.org/Graphics/SVG/1.1/DTD/svg11.dtd">
<!-- Creator: CorelDRAW X7 -->
<svg xmlns="http://www.w3.org/2000/svg" xml:space="preserve" width="0.376417in" height="0.352866in" version="1.1" style="shape-rendering:geometricPrecision; text-rendering:geometricPrecision; image-rendering:optimizeQuality; fill-rule:evenodd; clip-rule:evenodd"
viewBox="0 0 376 353"
 xmlns:xlink="http://www.w3.org/1999/xlink">
 <defs>
  <style type="text/css">
   <![CDATA[
    .fil0 {fill:#FEFEFE}
   ]]>
  </style>
 </defs>
 <g id="Layer_x0020_1">
  <metadata id="CorelCorpID_0Corel-Layer"/>
  <g id="_945156960">
   <path class="fil0" d="M224 184c3,-1 35,-34 38,-38l96 -96c3,-3 18,-16 19,-19l-104 -25c-12,-3 -9,-2 -16,5 -9,9 -18,18 -26,27 -9,8 -17,16 -26,25 -9,9 -9,6 -6,16 2,7 3,14 5,21 1,5 19,80 20,84z"/>
   <path class="fil0" d="M43 226c3,5 6,9 9,14l63 98c-4,0 -109,0 -112,1 -6,2 -4,12 2,12l278 0c4,0 6,-2 6,-6 0,-8 -6,-7 -13,-7l-145 0 -18 -29c-4,-5 -7,-10 -10,-15l-48 -73c-2,1 -8,5 -12,5z"/>
   <path class="fil0" d="M41 161c8,2 10,4 13,5l25 -37c4,-6 8,-12 12,-18 5,-6 8,-12 13,-18l44 -63c2,-3 5,-9 7,-9l40 0c0,13 10,17 15,24l28 -28c-11,-8 -9,-15 -26,-15 -3,0 -5,1 -7,2 -11,6 0,4 -27,4 -7,0 -14,0 -21,0 -12,0 -10,-1 -23,18l-21 31c-2,2 -3,4 -4,6 -19,28 -42,58 -60,86l-8 12z"/>
   <path class="fil0" d="M33 217c35,0 30,-45 3,-45 -23,0 -30,24 -18,38 3,2 9,7 15,7z"/>
   <path class="fil0" d="M288 135c21,14 45,-2 45,-19 0,-9 1,-13 -4,-21l-41 40z"/>
  </g>
 </g>
</svg>
